<?xml version="1.0" encoding="UTF-8" standalone="no"?>
<svg
   width="60"
   height="58"
   viewBox="0 0 60 58"
   fill="none"
   version="1.1"
   id="svg1"
   xmlns="http://www.w3.org/2000/svg"
   xmlns:svg="http://www.w3.org/2000/svg">
  <defs
     id="defs1" />
  <g
     id="path3">
    <path
       fill="#777777"
       d="m 9.4941406,7.4941406 a 1,1 0 0 0 -0.7070312,0.2929688 1,1 0 0 0 0,1.4140625 l 8.1464846,8.1464841 a 1,1 0 0 0 1.414062,0 1,1 0 0 0 0,-1.414062 L 10.201172,7.7871094 A 1,1 0 0 0 9.4941406,7.4941406 Z"
       id="path14" />
    <g
       id="g13">
      <path
         d="m 20.531865,13.4354 2.384154,7.152462 a 1.05,1.05 0 0 1 -1.328157,1.328157 L 14.4354,19.531865 a 1.2978714,1.2978714 0 0 1 -0.507311,-2.149003 l 4.454773,-4.454773 a 1.2978714,1.2978714 0 0 1 2.149003,0.507311 z"
         fill="#777777"
         id="path13" />
    </g>
  </g>
  <g
     id="path3-3">
    <path
       fill="#777777"
       d="m 49.091797,8.4941406 -8.146485,8.1464844 a 1,1 0 0 0 0,1.414062 1,1 0 0 0 1.414063,0 l 8.146484,-8.1464839 a 1,1 0 0 0 0,-1.4140625 1,1 0 0 0 -1.414062,0 z"
       id="path12" />
    <g
       id="g11">
      <path
         d="m 44.857493,20.238972 -7.152462,2.384154 a 1.05,1.05 0 0 1 -1.328157,-1.328157 l 2.384154,-7.152462 a 1.2978714,1.2978714 0 0 1 2.149003,-0.507311 l 4.454773,4.454773 a 1.2978714,1.2978714 0 0 1 -0.507311,2.149003 z"
         fill="#777777"
         id="path11" />
    </g>
  </g>
  <g
     id="path3-4">
    <path
       fill="#777777"
       d="m 41.652344,40.652344 a 1,1 0 0 0 0,1.414062 l 8.146484,8.146485 a 1,1 0 0 0 1.414063,0 1,1 0 0 0 0,-1.414063 l -8.146485,-8.146484 a 1,1 0 0 0 -1.414062,0 z"
       id="path10" />
    <g
       id="g9">
      <path
         d="m 39.468132,44.564597 -2.384154,-7.152462 a 1.05,1.05 0 0 1 1.328157,-1.328157 l 7.152462,2.384154 a 1.2978714,1.2978714 0 0 1 0.507311,2.149003 l -4.454773,4.454773 a 1.2978714,1.2978714 0 0 1 -2.149003,-0.507311 z"
         fill="#777777"
         id="path9" />
    </g>
  </g>
  <g
     id="path3-0">
    <path
       fill="#777777"
       d="m 17.640625,39.945312 -8.1464844,8.146485 a 1,1 0 0 0 0,1.414062 1,1 0 0 0 1.4140624,0 l 8.146484,-8.146484 a 1,1 0 0 0 0,-1.414063 1,1 0 0 0 -1.414062,0 z"
       id="path16" />
    <g
       id="g15">
      <path
         d="m 15.142507,37.761028 7.152462,-2.384154 a 1.05,1.05 0 0 1 1.328157,1.328157 l -2.384154,7.152462 a 1.2978714,1.2978714 0 0 1 -2.149003,0.507311 l -4.454773,-4.454773 a 1.2978714,1.2978714 0 0 1 0.507311,-2.149003 z"
         fill="#777777"
         id="path15" />
    </g>
  </g>
  <circle
     fill="#777777"
     id="path4"
     cx="30"
     cy="29"
     r="6.0588751" />
</svg>
