<svg width="60" height="58" viewBox="0 0 60 58" fill="none" xmlns="http://www.w3.org/2000/svg">
<path d="M31.7935 2.89352L38.6915 16.8704C39.2741 18.051 40.4004 18.8693 41.7032 19.0586L57.1277 21.2999C58.7681 21.5383 59.4232 23.5542 58.2361 24.7113L47.0749 35.5908C46.1321 36.5098 45.7019 37.8338 45.9245 39.1313L48.5593 54.4935C48.8395 56.1273 47.1247 57.3732 45.6574 56.6018L31.8614 49.3488C30.6961 48.7362 29.3039 48.7362 28.1386 49.3488L14.3426 56.6018C12.8753 57.3732 11.1605 56.1273 11.4407 54.4935L14.0755 39.1313C14.2981 37.8338 13.8679 36.5098 12.9251 35.5908L1.76388 24.7113C0.576844 23.5542 1.23186 21.5383 2.87231 21.2999L18.2968 19.0586C19.5996 18.8693 20.7259 18.051 21.3085 16.8704L28.2065 2.89352C28.9402 1.40703 31.0598 1.40703 31.7935 2.89352Z" fill="#DDDDDD" stroke="#777777" stroke-width="2"/>
</svg>
